<?xml version="1.0" standalone="no"?><!DOCTYPE svg PUBLIC "-//W3C//DTD SVG 1.1//EN" "http://www.w3.org/Graphics/SVG/1.1/DTD/svg11.dtd"><svg t="1561687793353" class="icon" viewBox="0 0 1024 1024" version="1.1" xmlns="http://www.w3.org/2000/svg" p-id="2161" xmlns:xlink="http://www.w3.org/1999/xlink" width="64" height="64"><defs><style type="text/css"></style></defs><path d="M508.45498785 280.93584118c-94.4495123 0-171.50043022 77.05091792-171.50043022 171.50043023 0 94.45072592 77.05091792 171.50164385 171.50043022 171.50164384s171.50164385-77.05091792 171.50164385-171.50164384c0-94.4495123-74.5678317-171.50043022-171.50164385-171.50043023z" fill="#2C2D2D" p-id="2162"></path><path d="M645.15944297 452.43627141c0 74.56297718-59.65232355 134.21530075-134.22015527 134.21530074-74.56176355 0-134.21530075-59.65110992-134.21530073-134.21530074 0-74.56661808 59.65353718-134.21894163 134.21530073-134.21894163 72.08353185 0 134.22015525 59.65232355 134.22015527 134.21894163z" fill="#53B1B2" p-id="2163"></path><path d="M508.45498785 223.76660385c17.39859437 0 32.31288889-14.91429452 32.3128889-32.31288888s-14.91429452-32.30803437-32.3128889-32.30803438-32.31288889 14.90944-32.31288888 32.30803438 14.91429452 32.31288889 32.31288888 32.31288888z" fill="#2C2D2D" p-id="2164"></path><path d="M784.3469843 949.53654045c0-24.85392118-24.85513482-19.88289422-24.85513482-19.88289423h-79.53521778l-49.71148325-149.12959525c22.37204859-7.45654045 44.73802903-17.39859437 67.11007763-29.82858905 57.1680237-32.31288889 101.90726637-79.53521778 136.7044551-134.21530074 34.79718875-57.16681008 52.19578311-124.27810133 52.19578312-191.38817896 0-49.70662875-9.9408403-99.418112-29.82373452-146.6452954-19.88774875-44.73802903-47.22718341-84.50381748-79.5400723-119.30100623-34.79718875-34.79718875-74.56297718-62.14147792-119.30586073-79.54007229-47.22232889-19.88289422-91.96035792-29.82373452-144.15614105-29.82373452s-101.90726637 9.9408403-149.13444978 29.82373452c-44.73802903 19.88774875-84.50381748 47.22718341-119.30100622 79.54007229-34.79718875 34.79718875-62.14147792 74.56297718-79.54007229 119.30100623-19.88289422 47.22718341-29.82373452 94.4495123-29.82373452 146.6452954 0 52.20063763 9.9408403 99.42296652 29.82373452 146.64529541 19.88774875 44.74288355 44.74288355 84.50988563 79.54007229 119.30707437 34.79718875 34.79718875 74.56297718 62.14147792 119.30100622 79.5400723 9.94569482 4.9685997 19.88774875 7.45168592 29.82858905 12.42392652l-49.71148327 146.6452954H262.39279408s-24.85513482-4.97224059-24.85513483 19.88289423 24.85513482 24.85513482 24.85513483 24.8551348h497.10026903c-0.00121363 0 24.85392118 0 24.85392119-24.8551348z m-343.00207408-159.07043556c44.74409718 7.45654045 94.45072592 7.45654045 139.19360948-2.48429986l47.22232889 141.67062756H391.63828148l49.70662874-139.1863277zM839.03192178 425.09198222c0 59.65232355-14.91429452 116.82156089-44.74288356 166.53304415-29.82373452 49.71148325-69.59437748 89.47605808-119.30586074 119.30586074-49.70662875 29.82373452-106.87586608 44.73802903-164.04388978 44.73802904-86.99297185 0-171.4955757-34.79718875-233.63826725-96.93381215-62.13662341-62.14147792-99.418112-144.16099555-99.418112-233.64312178 0-86.99297185 34.79718875-171.49678933 96.93502577-233.63826725 62.13662341-62.13662341 144.16099555-96.93381215 233.63705363-96.93381215 86.99297185 0 171.50164385 34.79718875 233.63826726 96.93381215 62.13662341 62.14147792 96.93866667 146.64529541 96.93866667 233.63826725z m0 0" fill="#2C2D2D" p-id="2165"></path></svg>