<?xml version="1.0" standalone="no"?><!DOCTYPE svg PUBLIC "-//W3C//DTD SVG 1.1//EN" "http://www.w3.org/Graphics/SVG/1.1/DTD/svg11.dtd"><svg t="1562911617801" class="icon" viewBox="0 0 1024 1024" version="1.1" xmlns="http://www.w3.org/2000/svg" p-id="1268" xmlns:xlink="http://www.w3.org/1999/xlink" width="200" height="200"><defs><style type="text/css"></style></defs><path d="M637.4 350.4c47.3 0 85.7 38.5 85.7 85.7s-38.5 85.7-85.7 85.7-85.7-38.5-85.7-85.7 38.4-85.7 85.7-85.7m0-40c-69.4 0-125.7 56.3-125.7 125.7S568 561.8 637.4 561.8s125.7-56.3 125.7-125.7-56.3-125.7-125.7-125.7z" fill="#3E4FB7" p-id="1269"></path><path d="M808.9 733.6c-11 0-20-9-20-20 0-83.5-68-151.5-151.5-151.5s-151.5 68-151.5 151.5c0 11-9 20-20 20s-20-9-20-20c0-105.6 85.9-191.5 191.5-191.5S828.9 608 828.9 713.6c0 11-9 20-20 20zM387.2 397.1h-172c-11 0-20-9-20-20s9-20 20-20h172c11 0 20 9 20 20s-9 20-20 20zM387.2 532h-172c-11 0-20-9-20-20s9-20 20-20h172c11 0 20 9 20 20s-9 20-20 20zM387.2 666.9h-172c-11 0-20-9-20-20s9-20 20-20h172c11 0 20 9 20 20s-9 20-20 20z" fill="#3E4FB7" p-id="1270"></path><path d="M512 104c55.1 0 108.5 10.8 158.8 32 48.6 20.5 92.2 50 129.7 87.5s66.9 81.1 87.5 129.7c21.3 50.3 32 103.7 32 158.8s-10.8 108.5-32 158.8c-20.5 48.6-50 92.2-87.5 129.7s-81.1 66.9-129.7 87.5c-50.3 21.3-103.7 32-158.8 32s-108.5-10.8-158.8-32c-48.6-20.5-92.2-50-129.7-87.5s-66.9-81.1-87.5-129.7c-21.3-50.3-32-103.7-32-158.8s10.8-108.5 32-158.8c20.5-48.6 50-92.2 87.5-129.7s81.1-66.9 129.7-87.5c50.3-21.2 103.7-32 158.8-32m0-40C264.6 64 64 264.6 64 512s200.6 448 448 448 448-200.6 448-448S759.4 64 512 64z" fill="#3E4FB7" p-id="1271"></path></svg>