<?xml version="1.0" standalone="no"?><!DOCTYPE svg PUBLIC "-//W3C//DTD SVG 1.1//EN" "http://www.w3.org/Graphics/SVG/1.1/DTD/svg11.dtd"><svg t="1562911564418" class="icon" viewBox="0 0 1024 1024" version="1.1" xmlns="http://www.w3.org/2000/svg" p-id="1147" xmlns:xlink="http://www.w3.org/1999/xlink" width="200" height="200"><defs><style type="text/css"></style></defs><path d="M692.84 330.67H112.1a142.3 142.3 0 0 0-0.94 16.28v330.1c0 78 63.46 141.47 141.47 141.47h518.74c3.09 0 6.16-0.11 9.21-0.31V417.73c0-48.98-38.39-87.06-87.74-87.06z" fill="#BBF2FF" p-id="1148"></path><path d="M771.37 158.32H252.63C148.45 158.32 64 242.77 64 346.95v330.1c0 104.18 84.45 188.63 188.63 188.63h518.74c104.18 0 188.63-84.45 188.63-188.63v-330.1c0-104.18-84.45-188.63-188.63-188.63z m141.47 518.73c0 78-63.46 141.47-141.47 141.47H252.63c-78 0-141.47-63.46-141.47-141.47v-330.1c0-78 63.46-141.47 141.47-141.47h518.74c78 0 141.47 63.46 141.47 141.47z" fill="#2087E7" p-id="1149"></path><path d="M688.35 536.47h-54.84c-16.45 0-27.42 10.88-27.42 27.2s11 27.21 27.42 27.21h54.84c16.46 0 27.42-10.89 27.42-27.21s-11-27.2-27.42-27.2zM798 405.88H633.51c-16.45 0-27.42 10.88-27.42 27.21s11 27.21 27.42 27.21H798c16.45 0 27.42-10.89 27.42-27.21s-11-27.21-27.42-27.21zM393.23 324.65a115.55 115.55 0 1 0 115.54 115.54 115.67 115.67 0 0 0-115.54-115.54z m0 188.63a73.09 73.09 0 1 1 73.09-73.09 73.17 73.17 0 0 1-73.09 73.09z" fill="#2087E7" p-id="1150"></path><path d="M540.59 701.15a21.24 21.24 0 0 1-21.23-21.23 122.21 122.21 0 1 0-244.42 0 21.23 21.23 0 1 1-42.46 0c0-90.79 73.89-164.68 164.68-164.68s164.66 73.89 164.66 164.68a21.24 21.24 0 0 1-21.23 21.23z" fill="#2087E7" p-id="1151"></path></svg>