<?xml version="1.0" standalone="no"?><!DOCTYPE svg PUBLIC "-//W3C//DTD SVG 1.1//EN" "http://www.w3.org/Graphics/SVG/1.1/DTD/svg11.dtd"><svg t="1563155658325" class="icon" viewBox="0 0 1498 1024" version="1.1" xmlns="http://www.w3.org/2000/svg" p-id="1388" xmlns:xlink="http://www.w3.org/1999/xlink" width="292.578125" height="200"><defs><style type="text/css"></style></defs><path d="M1396.273951 1024v-19.555902h82.663025v-82.806635H1498.536585V1024h-102.262634zM1478.936976 19.59961h0.143609v-0.024976h-82.806634V0H1498.536585v102.237659h-19.599609V19.59961z m-73.197269 62.183024a55.464585 55.464585 0 0 1 16.309073 39.386537l0.14361 768.780488a55.895415 55.895415 0 0 1-55.839219 55.770536H122.692683a55.882927 55.882927 0 0 1-55.814244-55.795512V121.287805a55.864195 55.864195 0 0 1 55.814244-55.814244h1243.660488c14.660683 0 29.059122 5.931707 39.386536 16.309073z m-39.386536 7.530146H122.692683a32.018732 32.018732 0 0 0-31.968781 31.975025v768.661854a32.012488 32.012488 0 0 0 31.968781 31.950048h1243.660488a32.006244 32.006244 0 0 0 31.850146-29.302634V121.169171a32.074927 32.074927 0 0 0-9.322146-22.534244 31.981268 31.981268 0 0 0-22.528-9.322147zM465.77639 678.012878h737.036488v49.26439H465.77639v-49.26439z m143.553561-254.232976h593.457951v49.258147H609.329951v-49.258147z m0-122.836292h593.457951v49.401756H609.329951v-49.401756z m0-124.003903h593.457951v49.395513H609.329951v-49.395513zM485.613268 423.779902H580.932683v49.258147H485.613268v-49.258147z m0-122.836292H580.932683v49.258146H485.613268v-49.258146z m0-122.717659H580.932683v49.258147H485.613268v-49.258147zM384.181073 409.356488l20.636098 38.150244a31.363122 31.363122 0 0 0-31.244488-3.521561 58.730146 58.730146 0 0 0-22.996293 30.520195l-16.502634-25.237854v12.91239H226.185366v-12.91239l-14.73561 25.237854a58.748878 58.748878 0 0 0-22.990049-30.520195c-15.32878-8.216976-31.837659 6.456195-31.837658 6.456195l21.809951-41.671805c-49.083317-54.877659-45.842732-138.570927 7.342829-189.521171 53.179317-50.950244 137.297171-50.950244 190.476488 0 53.185561 50.950244 56.426146 134.643512 7.342829 189.521171l0.586927 0.586927zM216.163902 282.561561l-3.534048-9.977756-5.307317 8.803902h-8.254439l7.661268 6.456195v9.977757l8.254439-5.282342 8.254439 5.282342-4.714146-8.803903 7.661268-6.456195H216.163902z m-2.360195 117.98478h140.899903l-14.148683-22.303219H227.958634l-14.154927 22.303219z m93.739708-22.890146l-4.714147-14.679415h-39.498927l-5.307317 14.679415h49.520391zM238.567024 308.392585l7.661269 6.456195v9.977757l8.254439-5.282342 8.254439 5.282342-4.714147-8.803903 8.254439-6.456195h-10.614634l-3.534049-11.157854-3.540292 9.984h-10.021464z m51.287415-53.416585L281.6 233.84039l-8.248195 21.13561h-22.403122l17.095805 14.673171-5.307317 22.303219 18.862829-12.325463 18.869073 12.325463-5.307317-22.303219 17.095805-14.673171h-22.403122z m35.371707 54.590439l-4.120975-11.157854-3.540293 9.984h-10.021463l7.661268 6.456195v9.977757l8.254439-5.282342 8.254439 5.282342-6.487415-8.803903 7.667513-6.456195h-7.667513z m31.837659-32.287219l-3.534049-9.977757-3.540293 9.977757h-10.021463l7.661268 6.456195v9.977756l8.254439-5.282342 8.254439 5.282342-4.714146-9.977756 7.661268-6.456195h-10.021463z m60.091317 449.998048H200.254439v-49.26439H417.155122v49.26439z m0 96.343415H200.254439v-49.258146H417.155122v49.258146z m785.63278 0H465.77639v-49.258146h737.011512v49.258146zM19.574634 102.237659H0V0h102.356293v19.574634H19.574634v82.663025z m0 902.206439h82.781659V1024H0v-102.362537h19.574634v82.806635z" p-id="1389" fill="#1296db"></path></svg>