<?xml version="1.0" standalone="no"?><!DOCTYPE svg PUBLIC "-//W3C//DTD SVG 1.1//EN" "http://www.w3.org/Graphics/SVG/1.1/DTD/svg11.dtd"><svg t="1562911756798" class="icon" viewBox="0 0 1083 1024" version="1.1" xmlns="http://www.w3.org/2000/svg" p-id="2460" xmlns:xlink="http://www.w3.org/1999/xlink" width="211.5234375" height="200"><defs><style type="text/css"></style></defs><path d="M843.573754 479.46076v-23.208996c0-204.21584-134.588852-315.595696-301.716949-315.595696s-301.716949 111.379856-301.716949 315.595696v32.539246c0 9.33025 0 13.878746 4.665124 18.543871 18.660499 190.337094 143.919101 375.892434 297.051825 375.892434S820.364758 692.890222 838.908629 507.334881c4.665125-9.33025 4.665125-13.878746 4.665125-18.543871v-9.33025z m-278.507953 78.957238V419.164021c143.919101 4.665125 222.759711 41.752867 232.089961 64.961864v4.665125c-9.213622 27.874121-88.17086 64.961863-232.089961 69.626988z m-273.7262-64.961863v-9.33025c9.33025-23.208996 88.17086-60.296739 227.424836-64.961864v139.253977c-134.70548-4.665125-218.211215-41.752867-227.424836-64.961863z m501.151036-69.626989c-51.083117-27.874121-139.253977-46.417992-227.424836-46.417992V187.07406c130.040355 9.33025 218.211215 102.166234 227.424836 236.755086z m-273.842828-236.755086v185.671969c-88.17086 4.665125-176.341719 18.543871-227.424836 46.417992 13.995375-129.923727 97.501109-218.211215 227.424836-232.089961z m-218.094587 371.343938c51.083117 27.874121 134.588852 41.752867 218.094587 46.417992v232.089961c-97.384481-18.660499-185.555341-139.253977-218.094587-278.507953z m264.512579 278.391325v-232.089961c83.505735 0 167.128098-18.543871 218.094586-46.417992-27.757493 143.919101-120.593477 259.964082-218.094586 278.507953z" fill="#0066EB" p-id="2461"></path><path d="M1054.787281 1016.533258H789.80819c-13.06235 0-22.392599-9.33025-22.392599-22.392599s11.1963-22.392599 22.392599-22.3926h240.720442V759.018366c0-13.06235 11.1963-22.392599 22.3926-22.392599 13.06235 0 22.392599 9.33025 22.392599 22.392599v235.122293c1.86605 13.06235-7.4642 22.392599-20.52655 22.392599z m-0.933024-719.828764c-13.06235 0-22.392599-9.33025-22.3926-22.392599V52.251952h-242.586492c-13.06235 0-22.392599-9.33025-22.392599-22.392599s11.1963-22.392599 22.392599-22.392599H1051.988207c13.06235 0 22.392599 9.33025 22.392599 22.392599v244.452542c1.86605 13.06235-7.4642 22.392599-20.526549 22.392599zM270.579795 52.251952H54.118002v222.059943c0 13.06235-11.1963 22.392599-22.392599 22.392599-13.06235 0-22.392599-9.33025-22.392599-22.392599V29.859353C9.332804 16.797004 20.529103 7.466754 31.725403 7.466754h240.720442c13.06235 0 22.392599 9.33025 22.392599 22.392599s-11.1963 22.392599-24.258649 22.392599zM29.859353 734.759717c13.06235 0 22.392599 9.33025 22.392599 22.392599v212.729693H270.579795c13.06235 0 22.392599 9.33025 22.392599 22.3926S281.776095 1014.667208 270.579795 1014.667208H29.859353c-13.06235 0-22.392599-9.33025-22.392599-22.392599v-233.256243c0-13.06235 9.33025-24.258649 22.392599-24.258649z m1024.927928 289.237741H789.80819a29.856799 29.856799 0 1 1 0-59.713599h233.256243v-205.265493a29.856799 29.856799 0 1 1 59.713598 0v235.122293c1.86605 16.794449-11.1963 29.856799-27.99075 29.856799z m14.9284-264.979092a14.9284 14.9284 0 1 0-29.856799 0v220.193893H789.80819a14.9284 14.9284 0 1 0 0 29.856799h263.113042a14.718469 14.718469 0 0 0 14.928399-14.928399V759.018366z m-15.861424-454.849672a29.471926 29.471926 0 0 1-29.856799-29.856799v-214.595743H788.875165a29.471926 29.471926 0 0 1-29.856799-29.856799A29.471926 29.471926 0 0 1 788.875165 0.002554H1051.988207c18.660499 0 31.722849 13.06235 31.722849 29.856799v244.452542a29.471926 29.471926 0 0 1-29.856799 29.856799z m14.928399-274.309341a14.718469 14.718469 0 0 0-14.928399-14.928399H788.875165a14.718469 14.718469 0 0 0-14.928399 14.928399 14.718469 14.718469 0 0 0 14.928399 14.9284h248.184642v229.524142a14.9284 14.9284 0 1 0 29.856799 0V29.859353zM270.579795 59.716152H61.582202v214.595743a29.471926 29.471926 0 0 1-29.856799 29.856799 29.471926 29.471926 0 0 1-29.856799-29.856799V29.859353C0.002554 13.064904 13.064904 0.002554 29.859353 0.002554H270.579795a29.471926 29.471926 0 0 1 29.856799 29.856799c1.86605 16.794449-13.06235 29.856799-29.856799 29.856799z m0-44.785198H29.859353a14.718469 14.718469 0 0 0-14.928399 14.928399v244.452542A14.718469 14.718469 0 0 0 29.859353 289.240295a14.718469 14.718469 0 0 0 14.9284-14.9284V44.787753H270.579795a14.718469 14.718469 0 0 0 14.9284-14.9284c1.86605-9.33025-5.59815-14.9284-14.9284-14.928399zM29.859353 729.161567a29.471926 29.471926 0 0 1 29.856799 29.856799v205.265493H270.579795a29.856799 29.856799 0 1 1 0 59.713599H29.859353A29.471926 29.471926 0 0 1 0.002554 994.140659V759.018366a29.471926 29.471926 0 0 1 29.856799-29.856799zM14.930954 994.140659a14.718469 14.718469 0 0 0 14.928399 14.928399H270.579795a14.9284 14.9284 0 1 0 0-29.856799H46.653803V759.018366A14.718469 14.718469 0 0 0 31.725403 744.089967a14.718469 14.718469 0 0 0-14.928399 14.928399v235.122293z" fill="#00D929" p-id="2462"></path></svg>