<?xml version="1.0" standalone="no"?><!DOCTYPE svg PUBLIC "-//W3C//DTD SVG 1.1//EN" "http://www.w3.org/Graphics/SVG/1.1/DTD/svg11.dtd"><svg t="1561437489871" class="icon" viewBox="0 0 1024 1024" version="1.1" xmlns="http://www.w3.org/2000/svg" p-id="1419" xmlns:xlink="http://www.w3.org/1999/xlink" width="32" height="32"><defs><style type="text/css"></style></defs><path d="M896 128h-155.477333a42.666667 42.666667 0 0 1 0-85.333333H910.222222A71.111111 71.111111 0 0 1 981.333333 113.777778v171.178666a42.666667 42.666667 0 0 1-85.333333 0V128z m0 611.555556a42.666667 42.666667 0 0 1 85.333333 0v170.666666a71.111111 71.111111 0 0 1-71.111111 71.111111h-169.699555a42.666667 42.666667 0 0 1 0-85.333333H896V739.555556z m-768 156.444444h156.472889a42.666667 42.666667 0 0 1 0 85.333333H113.777778A71.111111 71.111111 0 0 1 42.666667 910.222222v-170.666666a42.666667 42.666667 0 0 1 85.333333 0v156.444444z m0-768v156.956444a42.666667 42.666667 0 0 1-85.333333 0V113.777778A71.111111 71.111111 0 0 1 113.777778 42.666667h170.695111a42.666667 42.666667 0 0 1 0 85.333333H128z m270.336 391.054222a199.111111 199.111111 0 1 1 227.328 0 313.372444 313.372444 0 0 1 194.218667 235.491556 47.644444 47.644444 0 0 1-46.876445 56.120889H250.680889a47.36 47.36 0 0 1-46.620445-55.751111 313.372444 313.372444 0 0 1 194.275556-235.861334z" fill="#949AA4" p-id="1420"></path></svg>