<?xml version="1.0" standalone="no"?><!DOCTYPE svg PUBLIC "-//W3C//DTD SVG 1.1//EN" "http://www.w3.org/Graphics/SVG/1.1/DTD/svg11.dtd"><svg t="1561444705712" class="icon" viewBox="0 0 1024 1024" version="1.1" xmlns="http://www.w3.org/2000/svg" p-id="3422" xmlns:xlink="http://www.w3.org/1999/xlink" width="64" height="64"><defs><style type="text/css"></style></defs><path d="M731.648 453.12H284.672c-14.848 0-27.136-12.288-27.136-27.136s12.288-27.136 27.136-27.136h377.344l-59.392-54.272c-11.264-10.24-11.776-27.136-1.536-38.4 10.24-11.264 27.136-11.776 38.4-1.536l111.104 101.376c8.192 7.68 11.264 19.456 7.168 29.696-5.12 10.24-14.848 17.408-26.112 17.408zM395.776 721.92c-6.144 0-12.8-2.048-17.92-6.656l-116.224-101.376c-8.704-7.68-11.264-19.456-7.68-29.696 4.096-10.752 14.336-17.408 25.6-17.408h457.216c14.848 0 27.136 12.288 27.136 27.136s-12.288 27.136-27.136 27.136H351.744l61.952 53.76c11.264 9.728 12.288 27.136 2.56 38.4-5.632 5.12-12.8 8.704-20.48 8.704z" fill="#2C2C2C" p-id="3423"></path><path d="M507.904 1003.52c-279.552 0-506.88-221.696-506.88-494.08S228.352 15.36 507.904 15.36s506.88 221.696 506.88 494.08-227.328 494.08-506.88 494.08z m0-920.576c-242.176 0-439.296 191.488-439.296 426.496s197.12 426.496 439.296 426.496S947.2 744.448 947.2 509.44s-197.12-426.496-439.296-426.496z" fill="#2C2C2C" p-id="3424"></path><path d="M211.968 410.112c-4.608 0-9.216-1.024-13.824-3.072-16.896-7.68-24.576-27.648-16.896-44.544C241.152 232.448 373.76 148.48 519.68 148.48c18.432 0 33.792 15.36 33.792 33.792 0 18.432-15.36 33.792-33.792 33.792-119.808 0-228.352 68.608-276.992 174.592-5.632 12.288-17.408 19.456-30.72 19.456zM183.296 543.232c-18.432 0-33.792-15.36-33.792-33.792 0-10.752 0.512-21.504 1.536-32.256 1.536-18.432 18.432-32.768 36.864-30.72 18.432 1.536 32.256 17.92 30.72 36.864-0.512 8.704-1.024 17.408-1.024 26.112-0.512 18.944-15.36 33.792-34.304 33.792z" fill="#2C2C2C" p-id="3425"></path></svg>