<?xml version="1.0" standalone="no"?><!DOCTYPE svg PUBLIC "-//W3C//DTD SVG 1.1//EN" "http://www.w3.org/Graphics/SVG/1.1/DTD/svg11.dtd"><svg t="1561441641022"  class="icon" viewBox="0 0 1024 1024" version="1.1" xmlns="http://www.w3.org/2000/svg" p-id="2388" width="128" height="128" xmlns:xlink="http://www.w3.org/1999/xlink"><defs><style type="text/css"></style></defs><path d="M543.741935 61.561078c-229.300406 0-415.186024 185.884594-415.186024 415.186024s185.884594 415.186024 415.186024 415.186024 415.186024-185.884594 415.186024-415.186024S773.043365 61.561078 543.741935 61.561078zM409.278477 308.915675c0-86.325088 110.805642-122.040521 110.805642-122.040521 16.047488-5.459339 31.626301-7.066953 47.317679 0 0 0 110.799502 40.677445 110.799502 122.040521 0 12.905938 17.080004 9.852392 31.185256 50.960649L378.104477 359.876324C385.853975 319.052546 409.278477 321.821613 409.278477 308.915675zM778.195711 704.900382c0 35.786041-93.78192 66.434062-93.78192 66.434062l-39.074947-4.967128c0 0-0.493234-0.061398-1.401929-0.171915l-6.412037 0.171915c0 0 0.048095-0.317225 0.137123-0.912789-17.880229-2.061962-63.140039-6.9022-93.919043-6.9022-30.735002 0-76.021417 4.841262-93.912903 6.9022 0.086981 0.595564 0.13303 0.912789 0.13303 0.912789l-9.864672 0.25685-36.740786 4.597715c0 0-94.066399-30.667463-94.066399-66.322521l0-17.287735c0-33.258475 43.35646-66.824965 94.169753-92.567255 2.462075-1.242294 32.998555 171.673941 32.998555 171.673941l3.638877-0.094144 2.049682-0.25685c0 0 2.841721-0.355087 7.680936-0.912789-1.994424-13.677511-25.849738-177.671539-23.312962-178.835038 14.066367-6.434549 23.320125-12.463869 37.158295-17.453511 5.129834-1.86958 29.667693-15.19712 15.941064-51.081399-31.789007-32.405037-53.444213-63.803141-53.444213-134.605697l235.882312 0c0 70.068845-22.208814 101.756545-53.788044 134.209678l0.183172 0c-13.425777 40.709167 8.04114 50.362015 11.463076 51.469232 13.68979 4.526083 27.323299 11.601222 41.060161 17.461697 3.261277 1.38965-21.25714 165.165714-23.308869 178.835038 2.837628 0.327458 4.983501 0.584308 6.274914 0.740874l7.858992-0.210801c0 0 29.107945-172.35137 32.084743-170.895205 51.583842 25.257244 94.316086 58.583257 94.316086 92.523253L778.197758 704.900382z" p-id="2389"></path></svg>